<svg xmlns="http://www.w3.org/2000/svg" xmlns:xlink="http://www.w3.org/1999/xlink" width="1106.9" height="495.243" viewBox="0 0 1106.9 495.243">
  <defs>
    <clipPath id="clip-path">
      <rect id="Rectangle_546" data-name="Rectangle 546" width="259.868" height="205.742" fill="#fbdaa2"/>
    </clipPath>
    <clipPath id="clip-new_and_events">
      <rect width="1106.9" height="495.243"/>
    </clipPath>
  </defs>
  <g id="new_and_events" data-name="new and events" clip-path="url(#clip-new_and_events)">
    <rect width="1106.9" height="495.243" fill="#fff"/>
    <path id="Path_950" data-name="Path 950" d="M0,0H1106.9V641.637H0Z" transform="translate(0 -62.757)" fill="#86daf2"/>
    <g id="Group_1732" data-name="Group 1732" transform="translate(417 372)">
      <g id="Group_1729" data-name="Group 1729" transform="translate(61)">
        <g id="Group_1728" data-name="Group 1728" transform="translate(0 0)" clip-path="url(#clip-path)">
          <path id="Path_1401" data-name="Path 1401" d="M32.241,115.652a7.95,7.95,0,0,1-6.971-4.109A63.868,63.868,0,1,1,137.065,49.748a7.955,7.955,0,1,1-13.926,7.693,47.958,47.958,0,0,0-83.943,46.4,7.955,7.955,0,0,1-6.955,11.806" transform="translate(54.91 53.11)" fill="#fbdaa2"/>
          <path id="Path_1402" data-name="Path 1402" d="M51.621,41.136,97.329,15.871a7.9,7.9,0,1,1,7.647,13.83L59.268,54.966a7.9,7.9,0,1,1-7.647-13.83" transform="translate(150.82 47.229)" fill="#fbdaa2"/>
          <path id="Path_1403" data-name="Path 1403" d="M37.374,55.9,51.83,5.713A7.9,7.9,0,1,1,67.016,10.09L52.56,60.273A7.9,7.9,0,0,1,37.374,55.9" transform="translate(117.574 -0.002)" fill="#fbdaa2"/>
          <path id="Path_1404" data-name="Path 1404" d="M60.274,37.167,10.086,22.711A7.9,7.9,0,1,0,5.714,37.9L55.9,52.353a7.9,7.9,0,1,0,4.372-15.186" transform="translate(0.001 71.064)" fill="#fbdaa2"/>
          <path id="Path_1405" data-name="Path 1405" d="M41.62,59.822,16.355,14.114a7.9,7.9,0,0,1,13.83-7.647L55.45,52.175a7.9,7.9,0,1,1-13.83,7.647" transform="translate(48.764 7.596)" fill="#fbdaa2"/>
          <path id="Path_1406" data-name="Path 1406" d="M7.144,65.721,52.852,40.456A7.9,7.9,0,0,1,60.5,54.286L14.791,79.551a7.9,7.9,0,0,1-7.647-13.83" transform="translate(9.743 125.21)" fill="#fbdaa2"/>
          <path id="Path_1407" data-name="Path 1407" d="M45.228,24.877l7.28-8.473A7.9,7.9,0,1,1,64.494,26.7l-7.28,8.473a7.9,7.9,0,0,1-11.986-10.3" transform="translate(137.434 43.333)" fill="#fbdaa2"/>
          <path id="Path_1408" data-name="Path 1408" d="M26.929,33.2,15.882,34.86a7.9,7.9,0,1,0,2.349,15.628l11.043-1.656A7.9,7.9,0,1,0,26.929,33.2" transform="translate(29.033 105.04)" fill="#fbdaa2"/>
          <path id="Path_1409" data-name="Path 1409" d="M34.726,25.374l-8.945-6.692A7.9,7.9,0,0,0,16.315,31.34l8.945,6.688a7.9,7.9,0,0,0,9.466-12.653" transform="translate(41.728 54.292)" fill="#fbdaa2"/>
          <path id="Path_1410" data-name="Path 1410" d="M30.026,27.982l-.909-11.131A7.9,7.9,0,0,1,44.87,15.566L45.779,26.7a7.9,7.9,0,0,1-15.753,1.285" transform="translate(92.273 26.344)" fill="#fbdaa2"/>
        </g>
      </g>
      <g id="Group_1730" data-name="Group 1730" transform="translate(403.868 275.483) rotate(180)">
        <g id="Group_1728-2" data-name="Group 1728" transform="translate(0 0)" clip-path="url(#clip-path)">
          <path id="Path_1401-2" data-name="Path 1401" d="M32.241,115.652a7.95,7.95,0,0,1-6.971-4.109A63.868,63.868,0,1,1,137.065,49.748a7.955,7.955,0,1,1-13.926,7.693,47.958,47.958,0,0,0-83.943,46.4,7.955,7.955,0,0,1-6.955,11.806" transform="translate(54.91 53.11)" fill="#fbdaa2"/>
          <path id="Path_1402-2" data-name="Path 1402" d="M51.621,41.136,97.329,15.871a7.9,7.9,0,1,1,7.647,13.83L59.268,54.966a7.9,7.9,0,1,1-7.647-13.83" transform="translate(150.82 47.229)" fill="#fbdaa2"/>
          <path id="Path_1403-2" data-name="Path 1403" d="M37.374,55.9,51.83,5.713A7.9,7.9,0,1,1,67.016,10.09L52.56,60.273A7.9,7.9,0,0,1,37.374,55.9" transform="translate(117.574 -0.002)" fill="#fbdaa2"/>
          <path id="Path_1404-2" data-name="Path 1404" d="M60.274,37.167,10.086,22.711A7.9,7.9,0,1,0,5.714,37.9L55.9,52.353a7.9,7.9,0,1,0,4.372-15.186" transform="translate(0.001 71.064)" fill="#fbdaa2"/>
          <path id="Path_1405-2" data-name="Path 1405" d="M41.62,59.822,16.355,14.114a7.9,7.9,0,0,1,13.83-7.647L55.45,52.175a7.9,7.9,0,1,1-13.83,7.647" transform="translate(48.764 7.596)" fill="#fbdaa2"/>
          <path id="Path_1406-2" data-name="Path 1406" d="M7.144,65.721,52.852,40.456A7.9,7.9,0,0,1,60.5,54.286L14.791,79.551a7.9,7.9,0,0,1-7.647-13.83" transform="translate(9.743 125.21)" fill="#fbdaa2"/>
          <path id="Path_1407-2" data-name="Path 1407" d="M45.228,24.877l7.28-8.473A7.9,7.9,0,1,1,64.494,26.7l-7.28,8.473a7.9,7.9,0,0,1-11.986-10.3" transform="translate(137.434 43.333)" fill="#fbdaa2"/>
          <path id="Path_1408-2" data-name="Path 1408" d="M26.929,33.2,15.882,34.86a7.9,7.9,0,1,0,2.349,15.628l11.043-1.656A7.9,7.9,0,1,0,26.929,33.2" transform="translate(29.033 105.04)" fill="#fbdaa2"/>
          <path id="Path_1409-2" data-name="Path 1409" d="M34.726,25.374l-8.945-6.692A7.9,7.9,0,0,0,16.315,31.34l8.945,6.688a7.9,7.9,0,0,0,9.466-12.653" transform="translate(41.728 54.292)" fill="#fbdaa2"/>
          <path id="Path_1410-2" data-name="Path 1410" d="M30.026,27.982l-.909-11.131A7.9,7.9,0,0,1,44.87,15.566L45.779,26.7a7.9,7.9,0,0,1-15.753,1.285" transform="translate(92.273 26.344)" fill="#fbdaa2"/>
        </g>
      </g>
    </g>
    <g id="Group_1736" data-name="Group 1736" transform="translate(417 -125)">
      <g id="Group_1729-2" data-name="Group 1729" transform="translate(61)">
        <g id="Group_1728-3" data-name="Group 1728" transform="translate(0 0)" clip-path="url(#clip-path)">
          <path id="Path_1401-3" data-name="Path 1401" d="M32.241,115.652a7.95,7.95,0,0,1-6.971-4.109A63.868,63.868,0,1,1,137.065,49.748a7.955,7.955,0,1,1-13.926,7.693,47.958,47.958,0,0,0-83.943,46.4,7.955,7.955,0,0,1-6.955,11.806" transform="translate(54.91 53.11)" fill="#fbdaa2"/>
          <path id="Path_1402-3" data-name="Path 1402" d="M51.621,41.136,97.329,15.871a7.9,7.9,0,1,1,7.647,13.83L59.268,54.966a7.9,7.9,0,1,1-7.647-13.83" transform="translate(150.82 47.229)" fill="#fbdaa2"/>
          <path id="Path_1403-3" data-name="Path 1403" d="M37.374,55.9,51.83,5.713A7.9,7.9,0,1,1,67.016,10.09L52.56,60.273A7.9,7.9,0,0,1,37.374,55.9" transform="translate(117.574 -0.002)" fill="#fbdaa2"/>
          <path id="Path_1404-3" data-name="Path 1404" d="M60.274,37.167,10.086,22.711A7.9,7.9,0,1,0,5.714,37.9L55.9,52.353a7.9,7.9,0,1,0,4.372-15.186" transform="translate(0.001 71.064)" fill="#fbdaa2"/>
          <path id="Path_1405-3" data-name="Path 1405" d="M41.62,59.822,16.355,14.114a7.9,7.9,0,0,1,13.83-7.647L55.45,52.175a7.9,7.9,0,1,1-13.83,7.647" transform="translate(48.764 7.596)" fill="#fbdaa2"/>
          <path id="Path_1406-3" data-name="Path 1406" d="M7.144,65.721,52.852,40.456A7.9,7.9,0,0,1,60.5,54.286L14.791,79.551a7.9,7.9,0,0,1-7.647-13.83" transform="translate(9.743 125.21)" fill="#fbdaa2"/>
          <path id="Path_1407-3" data-name="Path 1407" d="M45.228,24.877l7.28-8.473A7.9,7.9,0,1,1,64.494,26.7l-7.28,8.473a7.9,7.9,0,0,1-11.986-10.3" transform="translate(137.434 43.333)" fill="#fbdaa2"/>
          <path id="Path_1408-3" data-name="Path 1408" d="M26.929,33.2,15.882,34.86a7.9,7.9,0,1,0,2.349,15.628l11.043-1.656A7.9,7.9,0,1,0,26.929,33.2" transform="translate(29.033 105.04)" fill="#fbdaa2"/>
          <path id="Path_1409-3" data-name="Path 1409" d="M34.726,25.374l-8.945-6.692A7.9,7.9,0,0,0,16.315,31.34l8.945,6.688a7.9,7.9,0,0,0,9.466-12.653" transform="translate(41.728 54.292)" fill="#fbdaa2"/>
          <path id="Path_1410-3" data-name="Path 1410" d="M30.026,27.982l-.909-11.131A7.9,7.9,0,0,1,44.87,15.566L45.779,26.7a7.9,7.9,0,0,1-15.753,1.285" transform="translate(92.273 26.344)" fill="#fbdaa2"/>
        </g>
      </g>
      <g id="Group_1730-2" data-name="Group 1730" transform="translate(403.868 275.483) rotate(180)">
        <g id="Group_1728-4" data-name="Group 1728" transform="translate(0 0)" clip-path="url(#clip-path)">
          <path id="Path_1401-4" data-name="Path 1401" d="M32.241,115.652a7.95,7.95,0,0,1-6.971-4.109A63.868,63.868,0,1,1,137.065,49.748a7.955,7.955,0,1,1-13.926,7.693,47.958,47.958,0,0,0-83.943,46.4,7.955,7.955,0,0,1-6.955,11.806" transform="translate(54.91 53.11)" fill="#fbdaa2"/>
          <path id="Path_1402-4" data-name="Path 1402" d="M51.621,41.136,97.329,15.871a7.9,7.9,0,1,1,7.647,13.83L59.268,54.966a7.9,7.9,0,1,1-7.647-13.83" transform="translate(150.82 47.229)" fill="#fbdaa2"/>
          <path id="Path_1403-4" data-name="Path 1403" d="M37.374,55.9,51.83,5.713A7.9,7.9,0,1,1,67.016,10.09L52.56,60.273A7.9,7.9,0,0,1,37.374,55.9" transform="translate(117.574 -0.002)" fill="#fbdaa2"/>
          <path id="Path_1404-4" data-name="Path 1404" d="M60.274,37.167,10.086,22.711A7.9,7.9,0,1,0,5.714,37.9L55.9,52.353a7.9,7.9,0,1,0,4.372-15.186" transform="translate(0.001 71.064)" fill="#fbdaa2"/>
          <path id="Path_1405-4" data-name="Path 1405" d="M41.62,59.822,16.355,14.114a7.9,7.9,0,0,1,13.83-7.647L55.45,52.175a7.9,7.9,0,1,1-13.83,7.647" transform="translate(48.764 7.596)" fill="#fbdaa2"/>
          <path id="Path_1406-4" data-name="Path 1406" d="M7.144,65.721,52.852,40.456A7.9,7.9,0,0,1,60.5,54.286L14.791,79.551a7.9,7.9,0,0,1-7.647-13.83" transform="translate(9.743 125.21)" fill="#fbdaa2"/>
          <path id="Path_1407-4" data-name="Path 1407" d="M45.228,24.877l7.28-8.473A7.9,7.9,0,1,1,64.494,26.7l-7.28,8.473a7.9,7.9,0,0,1-11.986-10.3" transform="translate(137.434 43.333)" fill="#fbdaa2"/>
          <path id="Path_1408-4" data-name="Path 1408" d="M26.929,33.2,15.882,34.86a7.9,7.9,0,1,0,2.349,15.628l11.043-1.656A7.9,7.9,0,1,0,26.929,33.2" transform="translate(29.033 105.04)" fill="#fbdaa2"/>
          <path id="Path_1409-4" data-name="Path 1409" d="M34.726,25.374l-8.945-6.692A7.9,7.9,0,0,0,16.315,31.34l8.945,6.688a7.9,7.9,0,0,0,9.466-12.653" transform="translate(41.728 54.292)" fill="#fbdaa2"/>
          <path id="Path_1410-4" data-name="Path 1410" d="M30.026,27.982l-.909-11.131A7.9,7.9,0,0,1,44.87,15.566L45.779,26.7a7.9,7.9,0,0,1-15.753,1.285" transform="translate(92.273 26.344)" fill="#fbdaa2"/>
        </g>
      </g>
    </g>
    <g id="Group_1741" data-name="Group 1741" transform="translate(549.5 136.32)">
      <g id="Group_1729-3" data-name="Group 1729" transform="translate(61)">
        <g id="Group_1728-5" data-name="Group 1728" transform="translate(0 0)" clip-path="url(#clip-path)">
          <path id="Path_1401-5" data-name="Path 1401" d="M32.241,115.652a7.95,7.95,0,0,1-6.971-4.109A63.868,63.868,0,1,1,137.065,49.748a7.955,7.955,0,1,1-13.926,7.693,47.958,47.958,0,0,0-83.943,46.4,7.955,7.955,0,0,1-6.955,11.806" transform="translate(54.91 53.11)" fill="#fbdaa2"/>
          <path id="Path_1402-5" data-name="Path 1402" d="M51.621,41.136,97.329,15.871a7.9,7.9,0,1,1,7.647,13.83L59.268,54.966a7.9,7.9,0,1,1-7.647-13.83" transform="translate(150.82 47.229)" fill="#fbdaa2"/>
          <path id="Path_1403-5" data-name="Path 1403" d="M37.374,55.9,51.83,5.713A7.9,7.9,0,1,1,67.016,10.09L52.56,60.273A7.9,7.9,0,0,1,37.374,55.9" transform="translate(117.574 -0.002)" fill="#fbdaa2"/>
          <path id="Path_1404-5" data-name="Path 1404" d="M60.274,37.167,10.086,22.711A7.9,7.9,0,1,0,5.714,37.9L55.9,52.353a7.9,7.9,0,1,0,4.372-15.186" transform="translate(0.001 71.064)" fill="#fbdaa2"/>
          <path id="Path_1405-5" data-name="Path 1405" d="M41.62,59.822,16.355,14.114a7.9,7.9,0,0,1,13.83-7.647L55.45,52.175a7.9,7.9,0,1,1-13.83,7.647" transform="translate(48.764 7.596)" fill="#fbdaa2"/>
          <path id="Path_1406-5" data-name="Path 1406" d="M7.144,65.721,52.852,40.456A7.9,7.9,0,0,1,60.5,54.286L14.791,79.551a7.9,7.9,0,0,1-7.647-13.83" transform="translate(9.743 125.21)" fill="#fbdaa2"/>
          <path id="Path_1407-5" data-name="Path 1407" d="M45.228,24.877l7.28-8.473A7.9,7.9,0,1,1,64.494,26.7l-7.28,8.473a7.9,7.9,0,0,1-11.986-10.3" transform="translate(137.434 43.333)" fill="#fbdaa2"/>
          <path id="Path_1408-5" data-name="Path 1408" d="M26.929,33.2,15.882,34.86a7.9,7.9,0,1,0,2.349,15.628l11.043-1.656A7.9,7.9,0,1,0,26.929,33.2" transform="translate(29.033 105.04)" fill="#fbdaa2"/>
          <path id="Path_1409-5" data-name="Path 1409" d="M34.726,25.374l-8.945-6.692A7.9,7.9,0,0,0,16.315,31.34l8.945,6.688a7.9,7.9,0,0,0,9.466-12.653" transform="translate(41.728 54.292)" fill="#fbdaa2"/>
          <path id="Path_1410-5" data-name="Path 1410" d="M30.026,27.982l-.909-11.131A7.9,7.9,0,0,1,44.87,15.566L45.779,26.7a7.9,7.9,0,0,1-15.753,1.285" transform="translate(92.273 26.344)" fill="#fbdaa2"/>
        </g>
      </g>
      <g id="Group_1730-3" data-name="Group 1730" transform="translate(403.868 275.483) rotate(180)">
        <g id="Group_1728-6" data-name="Group 1728" transform="translate(0 0)" clip-path="url(#clip-path)">
          <path id="Path_1401-6" data-name="Path 1401" d="M32.241,115.652a7.95,7.95,0,0,1-6.971-4.109A63.868,63.868,0,1,1,137.065,49.748a7.955,7.955,0,1,1-13.926,7.693,47.958,47.958,0,0,0-83.943,46.4,7.955,7.955,0,0,1-6.955,11.806" transform="translate(54.91 53.11)" fill="#fbdaa2"/>
          <path id="Path_1402-6" data-name="Path 1402" d="M51.621,41.136,97.329,15.871a7.9,7.9,0,1,1,7.647,13.83L59.268,54.966a7.9,7.9,0,1,1-7.647-13.83" transform="translate(150.82 47.229)" fill="#fbdaa2"/>
          <path id="Path_1403-6" data-name="Path 1403" d="M37.374,55.9,51.83,5.713A7.9,7.9,0,1,1,67.016,10.09L52.56,60.273A7.9,7.9,0,0,1,37.374,55.9" transform="translate(117.574 -0.002)" fill="#fbdaa2"/>
          <path id="Path_1404-6" data-name="Path 1404" d="M60.274,37.167,10.086,22.711A7.9,7.9,0,1,0,5.714,37.9L55.9,52.353a7.9,7.9,0,1,0,4.372-15.186" transform="translate(0.001 71.064)" fill="#fbdaa2"/>
          <path id="Path_1405-6" data-name="Path 1405" d="M41.62,59.822,16.355,14.114a7.9,7.9,0,0,1,13.83-7.647L55.45,52.175a7.9,7.9,0,1,1-13.83,7.647" transform="translate(48.764 7.596)" fill="#fbdaa2"/>
          <path id="Path_1406-6" data-name="Path 1406" d="M7.144,65.721,52.852,40.456A7.9,7.9,0,0,1,60.5,54.286L14.791,79.551a7.9,7.9,0,0,1-7.647-13.83" transform="translate(9.743 125.21)" fill="#fbdaa2"/>
          <path id="Path_1407-6" data-name="Path 1407" d="M45.228,24.877l7.28-8.473A7.9,7.9,0,1,1,64.494,26.7l-7.28,8.473a7.9,7.9,0,0,1-11.986-10.3" transform="translate(137.434 43.333)" fill="#fbdaa2"/>
          <path id="Path_1408-6" data-name="Path 1408" d="M26.929,33.2,15.882,34.86a7.9,7.9,0,1,0,2.349,15.628l11.043-1.656A7.9,7.9,0,1,0,26.929,33.2" transform="translate(29.033 105.04)" fill="#fbdaa2"/>
          <path id="Path_1409-6" data-name="Path 1409" d="M34.726,25.374l-8.945-6.692A7.9,7.9,0,0,0,16.315,31.34l8.945,6.688a7.9,7.9,0,0,0,9.466-12.653" transform="translate(41.728 54.292)" fill="#fbdaa2"/>
          <path id="Path_1410-6" data-name="Path 1410" d="M30.026,27.982l-.909-11.131A7.9,7.9,0,0,1,44.87,15.566L45.779,26.7a7.9,7.9,0,0,1-15.753,1.285" transform="translate(92.273 26.344)" fill="#fbdaa2"/>
        </g>
      </g>
    </g>
    <g id="Group_1733" data-name="Group 1733" transform="translate(48 372)">
      <g id="Group_1729-4" data-name="Group 1729" transform="translate(61)">
        <g id="Group_1728-7" data-name="Group 1728" transform="translate(0 0)" clip-path="url(#clip-path)">
          <path id="Path_1401-7" data-name="Path 1401" d="M32.241,115.652a7.95,7.95,0,0,1-6.971-4.109A63.868,63.868,0,1,1,137.065,49.748a7.955,7.955,0,1,1-13.926,7.693,47.958,47.958,0,0,0-83.943,46.4,7.955,7.955,0,0,1-6.955,11.806" transform="translate(54.91 53.11)" fill="#fbdaa2"/>
          <path id="Path_1402-7" data-name="Path 1402" d="M51.621,41.136,97.329,15.871a7.9,7.9,0,1,1,7.647,13.83L59.268,54.966a7.9,7.9,0,1,1-7.647-13.83" transform="translate(150.82 47.229)" fill="#fbdaa2"/>
          <path id="Path_1403-7" data-name="Path 1403" d="M37.374,55.9,51.83,5.713A7.9,7.9,0,1,1,67.016,10.09L52.56,60.273A7.9,7.9,0,0,1,37.374,55.9" transform="translate(117.574 -0.002)" fill="#fbdaa2"/>
          <path id="Path_1404-7" data-name="Path 1404" d="M60.274,37.167,10.086,22.711A7.9,7.9,0,1,0,5.714,37.9L55.9,52.353a7.9,7.9,0,1,0,4.372-15.186" transform="translate(0.001 71.064)" fill="#fbdaa2"/>
          <path id="Path_1405-7" data-name="Path 1405" d="M41.62,59.822,16.355,14.114a7.9,7.9,0,0,1,13.83-7.647L55.45,52.175a7.9,7.9,0,1,1-13.83,7.647" transform="translate(48.764 7.596)" fill="#fbdaa2"/>
          <path id="Path_1406-7" data-name="Path 1406" d="M7.144,65.721,52.852,40.456A7.9,7.9,0,0,1,60.5,54.286L14.791,79.551a7.9,7.9,0,0,1-7.647-13.83" transform="translate(9.743 125.21)" fill="#fbdaa2"/>
          <path id="Path_1407-7" data-name="Path 1407" d="M45.228,24.877l7.28-8.473A7.9,7.9,0,1,1,64.494,26.7l-7.28,8.473a7.9,7.9,0,0,1-11.986-10.3" transform="translate(137.434 43.333)" fill="#fbdaa2"/>
          <path id="Path_1408-7" data-name="Path 1408" d="M26.929,33.2,15.882,34.86a7.9,7.9,0,1,0,2.349,15.628l11.043-1.656A7.9,7.9,0,1,0,26.929,33.2" transform="translate(29.033 105.04)" fill="#fbdaa2"/>
          <path id="Path_1409-7" data-name="Path 1409" d="M34.726,25.374l-8.945-6.692A7.9,7.9,0,0,0,16.315,31.34l8.945,6.688a7.9,7.9,0,0,0,9.466-12.653" transform="translate(41.728 54.292)" fill="#fbdaa2"/>
          <path id="Path_1410-7" data-name="Path 1410" d="M30.026,27.982l-.909-11.131A7.9,7.9,0,0,1,44.87,15.566L45.779,26.7a7.9,7.9,0,0,1-15.753,1.285" transform="translate(92.273 26.344)" fill="#fbdaa2"/>
        </g>
      </g>
      <g id="Group_1730-4" data-name="Group 1730" transform="translate(403.868 275.483) rotate(180)">
        <g id="Group_1728-8" data-name="Group 1728" transform="translate(0 0)" clip-path="url(#clip-path)">
          <path id="Path_1401-8" data-name="Path 1401" d="M32.241,115.652a7.95,7.95,0,0,1-6.971-4.109A63.868,63.868,0,1,1,137.065,49.748a7.955,7.955,0,1,1-13.926,7.693,47.958,47.958,0,0,0-83.943,46.4,7.955,7.955,0,0,1-6.955,11.806" transform="translate(54.91 53.11)" fill="#fbdaa2"/>
          <path id="Path_1402-8" data-name="Path 1402" d="M51.621,41.136,97.329,15.871a7.9,7.9,0,1,1,7.647,13.83L59.268,54.966a7.9,7.9,0,1,1-7.647-13.83" transform="translate(150.82 47.229)" fill="#fbdaa2"/>
          <path id="Path_1403-8" data-name="Path 1403" d="M37.374,55.9,51.83,5.713A7.9,7.9,0,1,1,67.016,10.09L52.56,60.273A7.9,7.9,0,0,1,37.374,55.9" transform="translate(117.574 -0.002)" fill="#fbdaa2"/>
          <path id="Path_1404-8" data-name="Path 1404" d="M60.274,37.167,10.086,22.711A7.9,7.9,0,1,0,5.714,37.9L55.9,52.353a7.9,7.9,0,1,0,4.372-15.186" transform="translate(0.001 71.064)" fill="#fbdaa2"/>
          <path id="Path_1405-8" data-name="Path 1405" d="M41.62,59.822,16.355,14.114a7.9,7.9,0,0,1,13.83-7.647L55.45,52.175a7.9,7.9,0,1,1-13.83,7.647" transform="translate(48.764 7.596)" fill="#fbdaa2"/>
          <path id="Path_1406-8" data-name="Path 1406" d="M7.144,65.721,52.852,40.456A7.9,7.9,0,0,1,60.5,54.286L14.791,79.551a7.9,7.9,0,0,1-7.647-13.83" transform="translate(9.743 125.21)" fill="#fbdaa2"/>
          <path id="Path_1407-8" data-name="Path 1407" d="M45.228,24.877l7.28-8.473A7.9,7.9,0,1,1,64.494,26.7l-7.28,8.473a7.9,7.9,0,0,1-11.986-10.3" transform="translate(137.434 43.333)" fill="#fbdaa2"/>
          <path id="Path_1408-8" data-name="Path 1408" d="M26.929,33.2,15.882,34.86a7.9,7.9,0,1,0,2.349,15.628l11.043-1.656A7.9,7.9,0,1,0,26.929,33.2" transform="translate(29.033 105.04)" fill="#fbdaa2"/>
          <path id="Path_1409-8" data-name="Path 1409" d="M34.726,25.374l-8.945-6.692A7.9,7.9,0,0,0,16.315,31.34l8.945,6.688a7.9,7.9,0,0,0,9.466-12.653" transform="translate(41.728 54.292)" fill="#fbdaa2"/>
          <path id="Path_1410-8" data-name="Path 1410" d="M30.026,27.982l-.909-11.131A7.9,7.9,0,0,1,44.87,15.566L45.779,26.7a7.9,7.9,0,0,1-15.753,1.285" transform="translate(92.273 26.344)" fill="#fbdaa2"/>
        </g>
      </g>
    </g>
    <g id="Group_1738" data-name="Group 1738" transform="translate(48 -125)">
      <g id="Group_1729-5" data-name="Group 1729" transform="translate(61)">
        <g id="Group_1728-9" data-name="Group 1728" transform="translate(0 0)" clip-path="url(#clip-path)">
          <path id="Path_1401-9" data-name="Path 1401" d="M32.241,115.652a7.95,7.95,0,0,1-6.971-4.109A63.868,63.868,0,1,1,137.065,49.748a7.955,7.955,0,1,1-13.926,7.693,47.958,47.958,0,0,0-83.943,46.4,7.955,7.955,0,0,1-6.955,11.806" transform="translate(54.91 53.11)" fill="#fbdaa2"/>
          <path id="Path_1402-9" data-name="Path 1402" d="M51.621,41.136,97.329,15.871a7.9,7.9,0,1,1,7.647,13.83L59.268,54.966a7.9,7.9,0,1,1-7.647-13.83" transform="translate(150.82 47.229)" fill="#fbdaa2"/>
          <path id="Path_1403-9" data-name="Path 1403" d="M37.374,55.9,51.83,5.713A7.9,7.9,0,1,1,67.016,10.09L52.56,60.273A7.9,7.9,0,0,1,37.374,55.9" transform="translate(117.574 -0.002)" fill="#fbdaa2"/>
          <path id="Path_1404-9" data-name="Path 1404" d="M60.274,37.167,10.086,22.711A7.9,7.9,0,1,0,5.714,37.9L55.9,52.353a7.9,7.9,0,1,0,4.372-15.186" transform="translate(0.001 71.064)" fill="#fbdaa2"/>
          <path id="Path_1405-9" data-name="Path 1405" d="M41.62,59.822,16.355,14.114a7.9,7.9,0,0,1,13.83-7.647L55.45,52.175a7.9,7.9,0,1,1-13.83,7.647" transform="translate(48.764 7.596)" fill="#fbdaa2"/>
          <path id="Path_1406-9" data-name="Path 1406" d="M7.144,65.721,52.852,40.456A7.9,7.9,0,0,1,60.5,54.286L14.791,79.551a7.9,7.9,0,0,1-7.647-13.83" transform="translate(9.743 125.21)" fill="#fbdaa2"/>
          <path id="Path_1407-9" data-name="Path 1407" d="M45.228,24.877l7.28-8.473A7.9,7.9,0,1,1,64.494,26.7l-7.28,8.473a7.9,7.9,0,0,1-11.986-10.3" transform="translate(137.434 43.333)" fill="#fbdaa2"/>
          <path id="Path_1408-9" data-name="Path 1408" d="M26.929,33.2,15.882,34.86a7.9,7.9,0,1,0,2.349,15.628l11.043-1.656A7.9,7.9,0,1,0,26.929,33.2" transform="translate(29.033 105.04)" fill="#fbdaa2"/>
          <path id="Path_1409-9" data-name="Path 1409" d="M34.726,25.374l-8.945-6.692A7.9,7.9,0,0,0,16.315,31.34l8.945,6.688a7.9,7.9,0,0,0,9.466-12.653" transform="translate(41.728 54.292)" fill="#fbdaa2"/>
          <path id="Path_1410-9" data-name="Path 1410" d="M30.026,27.982l-.909-11.131A7.9,7.9,0,0,1,44.87,15.566L45.779,26.7a7.9,7.9,0,0,1-15.753,1.285" transform="translate(92.273 26.344)" fill="#fbdaa2"/>
        </g>
      </g>
      <g id="Group_1730-5" data-name="Group 1730" transform="translate(403.868 275.483) rotate(180)">
        <g id="Group_1728-10" data-name="Group 1728" transform="translate(0 0)" clip-path="url(#clip-path)">
          <path id="Path_1401-10" data-name="Path 1401" d="M32.241,115.652a7.95,7.95,0,0,1-6.971-4.109A63.868,63.868,0,1,1,137.065,49.748a7.955,7.955,0,1,1-13.926,7.693,47.958,47.958,0,0,0-83.943,46.4,7.955,7.955,0,0,1-6.955,11.806" transform="translate(54.91 53.11)" fill="#fbdaa2"/>
          <path id="Path_1402-10" data-name="Path 1402" d="M51.621,41.136,97.329,15.871a7.9,7.9,0,1,1,7.647,13.83L59.268,54.966a7.9,7.9,0,1,1-7.647-13.83" transform="translate(150.82 47.229)" fill="#fbdaa2"/>
          <path id="Path_1403-10" data-name="Path 1403" d="M37.374,55.9,51.83,5.713A7.9,7.9,0,1,1,67.016,10.09L52.56,60.273A7.9,7.9,0,0,1,37.374,55.9" transform="translate(117.574 -0.002)" fill="#fbdaa2"/>
          <path id="Path_1404-10" data-name="Path 1404" d="M60.274,37.167,10.086,22.711A7.9,7.9,0,1,0,5.714,37.9L55.9,52.353a7.9,7.9,0,1,0,4.372-15.186" transform="translate(0.001 71.064)" fill="#fbdaa2"/>
          <path id="Path_1405-10" data-name="Path 1405" d="M41.62,59.822,16.355,14.114a7.9,7.9,0,0,1,13.83-7.647L55.45,52.175a7.9,7.9,0,1,1-13.83,7.647" transform="translate(48.764 7.596)" fill="#fbdaa2"/>
          <path id="Path_1406-10" data-name="Path 1406" d="M7.144,65.721,52.852,40.456A7.9,7.9,0,0,1,60.5,54.286L14.791,79.551a7.9,7.9,0,0,1-7.647-13.83" transform="translate(9.743 125.21)" fill="#fbdaa2"/>
          <path id="Path_1407-10" data-name="Path 1407" d="M45.228,24.877l7.28-8.473A7.9,7.9,0,1,1,64.494,26.7l-7.28,8.473a7.9,7.9,0,0,1-11.986-10.3" transform="translate(137.434 43.333)" fill="#fbdaa2"/>
          <path id="Path_1408-10" data-name="Path 1408" d="M26.929,33.2,15.882,34.86a7.9,7.9,0,1,0,2.349,15.628l11.043-1.656A7.9,7.9,0,1,0,26.929,33.2" transform="translate(29.033 105.04)" fill="#fbdaa2"/>
          <path id="Path_1409-10" data-name="Path 1409" d="M34.726,25.374l-8.945-6.692A7.9,7.9,0,0,0,16.315,31.34l8.945,6.688a7.9,7.9,0,0,0,9.466-12.653" transform="translate(41.728 54.292)" fill="#fbdaa2"/>
          <path id="Path_1410-10" data-name="Path 1410" d="M30.026,27.982l-.909-11.131A7.9,7.9,0,0,1,44.87,15.566L45.779,26.7a7.9,7.9,0,0,1-15.753,1.285" transform="translate(92.273 26.344)" fill="#fbdaa2"/>
        </g>
      </g>
    </g>
    <g id="Group_1742" data-name="Group 1742" transform="translate(180.5 136.32)">
      <g id="Group_1729-6" data-name="Group 1729" transform="translate(61)">
        <g id="Group_1728-11" data-name="Group 1728" transform="translate(0 0)" clip-path="url(#clip-path)">
          <path id="Path_1401-11" data-name="Path 1401" d="M32.241,115.652a7.95,7.95,0,0,1-6.971-4.109A63.868,63.868,0,1,1,137.065,49.748a7.955,7.955,0,1,1-13.926,7.693,47.958,47.958,0,0,0-83.943,46.4,7.955,7.955,0,0,1-6.955,11.806" transform="translate(54.91 53.11)" fill="#fbdaa2"/>
          <path id="Path_1402-11" data-name="Path 1402" d="M51.621,41.136,97.329,15.871a7.9,7.9,0,1,1,7.647,13.83L59.268,54.966a7.9,7.9,0,1,1-7.647-13.83" transform="translate(150.82 47.229)" fill="#fbdaa2"/>
          <path id="Path_1403-11" data-name="Path 1403" d="M37.374,55.9,51.83,5.713A7.9,7.9,0,1,1,67.016,10.09L52.56,60.273A7.9,7.9,0,0,1,37.374,55.9" transform="translate(117.574 -0.002)" fill="#fbdaa2"/>
          <path id="Path_1404-11" data-name="Path 1404" d="M60.274,37.167,10.086,22.711A7.9,7.9,0,1,0,5.714,37.9L55.9,52.353a7.9,7.9,0,1,0,4.372-15.186" transform="translate(0.001 71.064)" fill="#fbdaa2"/>
          <path id="Path_1405-11" data-name="Path 1405" d="M41.62,59.822,16.355,14.114a7.9,7.9,0,0,1,13.83-7.647L55.45,52.175a7.9,7.9,0,1,1-13.83,7.647" transform="translate(48.764 7.596)" fill="#fbdaa2"/>
          <path id="Path_1406-11" data-name="Path 1406" d="M7.144,65.721,52.852,40.456A7.9,7.9,0,0,1,60.5,54.286L14.791,79.551a7.9,7.9,0,0,1-7.647-13.83" transform="translate(9.743 125.21)" fill="#fbdaa2"/>
          <path id="Path_1407-11" data-name="Path 1407" d="M45.228,24.877l7.28-8.473A7.9,7.9,0,1,1,64.494,26.7l-7.28,8.473a7.9,7.9,0,0,1-11.986-10.3" transform="translate(137.434 43.333)" fill="#fbdaa2"/>
          <path id="Path_1408-11" data-name="Path 1408" d="M26.929,33.2,15.882,34.86a7.9,7.9,0,1,0,2.349,15.628l11.043-1.656A7.9,7.9,0,1,0,26.929,33.2" transform="translate(29.033 105.04)" fill="#fbdaa2"/>
          <path id="Path_1409-11" data-name="Path 1409" d="M34.726,25.374l-8.945-6.692A7.9,7.9,0,0,0,16.315,31.34l8.945,6.688a7.9,7.9,0,0,0,9.466-12.653" transform="translate(41.728 54.292)" fill="#fbdaa2"/>
          <path id="Path_1410-11" data-name="Path 1410" d="M30.026,27.982l-.909-11.131A7.9,7.9,0,0,1,44.87,15.566L45.779,26.7a7.9,7.9,0,0,1-15.753,1.285" transform="translate(92.273 26.344)" fill="#fbdaa2"/>
        </g>
      </g>
      <g id="Group_1730-6" data-name="Group 1730" transform="translate(403.868 275.483) rotate(180)">
        <g id="Group_1728-12" data-name="Group 1728" transform="translate(0 0)" clip-path="url(#clip-path)">
          <path id="Path_1401-12" data-name="Path 1401" d="M32.241,115.652a7.95,7.95,0,0,1-6.971-4.109A63.868,63.868,0,1,1,137.065,49.748a7.955,7.955,0,1,1-13.926,7.693,47.958,47.958,0,0,0-83.943,46.4,7.955,7.955,0,0,1-6.955,11.806" transform="translate(54.91 53.11)" fill="#fbdaa2"/>
          <path id="Path_1402-12" data-name="Path 1402" d="M51.621,41.136,97.329,15.871a7.9,7.9,0,1,1,7.647,13.83L59.268,54.966a7.9,7.9,0,1,1-7.647-13.83" transform="translate(150.82 47.229)" fill="#fbdaa2"/>
          <path id="Path_1403-12" data-name="Path 1403" d="M37.374,55.9,51.83,5.713A7.9,7.9,0,1,1,67.016,10.09L52.56,60.273A7.9,7.9,0,0,1,37.374,55.9" transform="translate(117.574 -0.002)" fill="#fbdaa2"/>
          <path id="Path_1404-12" data-name="Path 1404" d="M60.274,37.167,10.086,22.711A7.9,7.9,0,1,0,5.714,37.9L55.9,52.353a7.9,7.9,0,1,0,4.372-15.186" transform="translate(0.001 71.064)" fill="#fbdaa2"/>
          <path id="Path_1405-12" data-name="Path 1405" d="M41.62,59.822,16.355,14.114a7.9,7.9,0,0,1,13.83-7.647L55.45,52.175a7.9,7.9,0,1,1-13.83,7.647" transform="translate(48.764 7.596)" fill="#fbdaa2"/>
          <path id="Path_1406-12" data-name="Path 1406" d="M7.144,65.721,52.852,40.456A7.9,7.9,0,0,1,60.5,54.286L14.791,79.551a7.9,7.9,0,0,1-7.647-13.83" transform="translate(9.743 125.21)" fill="#fbdaa2"/>
          <path id="Path_1407-12" data-name="Path 1407" d="M45.228,24.877l7.28-8.473A7.9,7.9,0,1,1,64.494,26.7l-7.28,8.473a7.9,7.9,0,0,1-11.986-10.3" transform="translate(137.434 43.333)" fill="#fbdaa2"/>
          <path id="Path_1408-12" data-name="Path 1408" d="M26.929,33.2,15.882,34.86a7.9,7.9,0,1,0,2.349,15.628l11.043-1.656A7.9,7.9,0,1,0,26.929,33.2" transform="translate(29.033 105.04)" fill="#fbdaa2"/>
          <path id="Path_1409-12" data-name="Path 1409" d="M34.726,25.374l-8.945-6.692A7.9,7.9,0,0,0,16.315,31.34l8.945,6.688a7.9,7.9,0,0,0,9.466-12.653" transform="translate(41.728 54.292)" fill="#fbdaa2"/>
          <path id="Path_1410-12" data-name="Path 1410" d="M30.026,27.982l-.909-11.131A7.9,7.9,0,0,1,44.87,15.566L45.779,26.7a7.9,7.9,0,0,1-15.753,1.285" transform="translate(92.273 26.344)" fill="#fbdaa2"/>
        </g>
      </g>
    </g>
    <g id="Group_1734" data-name="Group 1734" transform="translate(787 372)">
      <g id="Group_1729-7" data-name="Group 1729" transform="translate(61)">
        <g id="Group_1728-13" data-name="Group 1728" transform="translate(0 0)" clip-path="url(#clip-path)">
          <path id="Path_1401-13" data-name="Path 1401" d="M32.241,115.652a7.95,7.95,0,0,1-6.971-4.109A63.868,63.868,0,1,1,137.065,49.748a7.955,7.955,0,1,1-13.926,7.693,47.958,47.958,0,0,0-83.943,46.4,7.955,7.955,0,0,1-6.955,11.806" transform="translate(54.91 53.11)" fill="#fbdaa2"/>
          <path id="Path_1402-13" data-name="Path 1402" d="M51.621,41.136,97.329,15.871a7.9,7.9,0,1,1,7.647,13.83L59.268,54.966a7.9,7.9,0,1,1-7.647-13.83" transform="translate(150.82 47.229)" fill="#fbdaa2"/>
          <path id="Path_1403-13" data-name="Path 1403" d="M37.374,55.9,51.83,5.713A7.9,7.9,0,1,1,67.016,10.09L52.56,60.273A7.9,7.9,0,0,1,37.374,55.9" transform="translate(117.574 -0.002)" fill="#fbdaa2"/>
          <path id="Path_1404-13" data-name="Path 1404" d="M60.274,37.167,10.086,22.711A7.9,7.9,0,1,0,5.714,37.9L55.9,52.353a7.9,7.9,0,1,0,4.372-15.186" transform="translate(0.001 71.064)" fill="#fbdaa2"/>
          <path id="Path_1405-13" data-name="Path 1405" d="M41.62,59.822,16.355,14.114a7.9,7.9,0,0,1,13.83-7.647L55.45,52.175a7.9,7.9,0,1,1-13.83,7.647" transform="translate(48.764 7.596)" fill="#fbdaa2"/>
          <path id="Path_1406-13" data-name="Path 1406" d="M7.144,65.721,52.852,40.456A7.9,7.9,0,0,1,60.5,54.286L14.791,79.551a7.9,7.9,0,0,1-7.647-13.83" transform="translate(9.743 125.21)" fill="#fbdaa2"/>
          <path id="Path_1407-13" data-name="Path 1407" d="M45.228,24.877l7.28-8.473A7.9,7.9,0,1,1,64.494,26.7l-7.28,8.473a7.9,7.9,0,0,1-11.986-10.3" transform="translate(137.434 43.333)" fill="#fbdaa2"/>
          <path id="Path_1408-13" data-name="Path 1408" d="M26.929,33.2,15.882,34.86a7.9,7.9,0,1,0,2.349,15.628l11.043-1.656A7.9,7.9,0,1,0,26.929,33.2" transform="translate(29.033 105.04)" fill="#fbdaa2"/>
          <path id="Path_1409-13" data-name="Path 1409" d="M34.726,25.374l-8.945-6.692A7.9,7.9,0,0,0,16.315,31.34l8.945,6.688a7.9,7.9,0,0,0,9.466-12.653" transform="translate(41.728 54.292)" fill="#fbdaa2"/>
          <path id="Path_1410-13" data-name="Path 1410" d="M30.026,27.982l-.909-11.131A7.9,7.9,0,0,1,44.87,15.566L45.779,26.7a7.9,7.9,0,0,1-15.753,1.285" transform="translate(92.273 26.344)" fill="#fbdaa2"/>
        </g>
      </g>
      <g id="Group_1730-7" data-name="Group 1730" transform="translate(403.868 275.483) rotate(180)">
        <g id="Group_1728-14" data-name="Group 1728" transform="translate(0 0)" clip-path="url(#clip-path)">
          <path id="Path_1401-14" data-name="Path 1401" d="M32.241,115.652a7.95,7.95,0,0,1-6.971-4.109A63.868,63.868,0,1,1,137.065,49.748a7.955,7.955,0,1,1-13.926,7.693,47.958,47.958,0,0,0-83.943,46.4,7.955,7.955,0,0,1-6.955,11.806" transform="translate(54.91 53.11)" fill="#fbdaa2"/>
          <path id="Path_1402-14" data-name="Path 1402" d="M51.621,41.136,97.329,15.871a7.9,7.9,0,1,1,7.647,13.83L59.268,54.966a7.9,7.9,0,1,1-7.647-13.83" transform="translate(150.82 47.229)" fill="#fbdaa2"/>
          <path id="Path_1403-14" data-name="Path 1403" d="M37.374,55.9,51.83,5.713A7.9,7.9,0,1,1,67.016,10.09L52.56,60.273A7.9,7.9,0,0,1,37.374,55.9" transform="translate(117.574 -0.002)" fill="#fbdaa2"/>
          <path id="Path_1404-14" data-name="Path 1404" d="M60.274,37.167,10.086,22.711A7.9,7.9,0,1,0,5.714,37.9L55.9,52.353a7.9,7.9,0,1,0,4.372-15.186" transform="translate(0.001 71.064)" fill="#fbdaa2"/>
          <path id="Path_1405-14" data-name="Path 1405" d="M41.62,59.822,16.355,14.114a7.9,7.9,0,0,1,13.83-7.647L55.45,52.175a7.9,7.9,0,1,1-13.83,7.647" transform="translate(48.764 7.596)" fill="#fbdaa2"/>
          <path id="Path_1406-14" data-name="Path 1406" d="M7.144,65.721,52.852,40.456A7.9,7.9,0,0,1,60.5,54.286L14.791,79.551a7.9,7.9,0,0,1-7.647-13.83" transform="translate(9.743 125.21)" fill="#fbdaa2"/>
          <path id="Path_1407-14" data-name="Path 1407" d="M45.228,24.877l7.28-8.473A7.9,7.9,0,1,1,64.494,26.7l-7.28,8.473a7.9,7.9,0,0,1-11.986-10.3" transform="translate(137.434 43.333)" fill="#fbdaa2"/>
          <path id="Path_1408-14" data-name="Path 1408" d="M26.929,33.2,15.882,34.86a7.9,7.9,0,1,0,2.349,15.628l11.043-1.656A7.9,7.9,0,1,0,26.929,33.2" transform="translate(29.033 105.04)" fill="#fbdaa2"/>
          <path id="Path_1409-14" data-name="Path 1409" d="M34.726,25.374l-8.945-6.692A7.9,7.9,0,0,0,16.315,31.34l8.945,6.688a7.9,7.9,0,0,0,9.466-12.653" transform="translate(41.728 54.292)" fill="#fbdaa2"/>
          <path id="Path_1410-14" data-name="Path 1410" d="M30.026,27.982l-.909-11.131A7.9,7.9,0,0,1,44.87,15.566L45.779,26.7a7.9,7.9,0,0,1-15.753,1.285" transform="translate(92.273 26.344)" fill="#fbdaa2"/>
        </g>
      </g>
    </g>
    <g id="Group_1737" data-name="Group 1737" transform="translate(787 -125)">
      <g id="Group_1729-8" data-name="Group 1729" transform="translate(61)">
        <g id="Group_1728-15" data-name="Group 1728" transform="translate(0 0)" clip-path="url(#clip-path)">
          <path id="Path_1401-15" data-name="Path 1401" d="M32.241,115.652a7.95,7.95,0,0,1-6.971-4.109A63.868,63.868,0,1,1,137.065,49.748a7.955,7.955,0,1,1-13.926,7.693,47.958,47.958,0,0,0-83.943,46.4,7.955,7.955,0,0,1-6.955,11.806" transform="translate(54.91 53.11)" fill="#fbdaa2"/>
          <path id="Path_1402-15" data-name="Path 1402" d="M51.621,41.136,97.329,15.871a7.9,7.9,0,1,1,7.647,13.83L59.268,54.966a7.9,7.9,0,1,1-7.647-13.83" transform="translate(150.82 47.229)" fill="#fbdaa2"/>
          <path id="Path_1403-15" data-name="Path 1403" d="M37.374,55.9,51.83,5.713A7.9,7.9,0,1,1,67.016,10.09L52.56,60.273A7.9,7.9,0,0,1,37.374,55.9" transform="translate(117.574 -0.002)" fill="#fbdaa2"/>
          <path id="Path_1404-15" data-name="Path 1404" d="M60.274,37.167,10.086,22.711A7.9,7.9,0,1,0,5.714,37.9L55.9,52.353a7.9,7.9,0,1,0,4.372-15.186" transform="translate(0.001 71.064)" fill="#fbdaa2"/>
          <path id="Path_1405-15" data-name="Path 1405" d="M41.62,59.822,16.355,14.114a7.9,7.9,0,0,1,13.83-7.647L55.45,52.175a7.9,7.9,0,1,1-13.83,7.647" transform="translate(48.764 7.596)" fill="#fbdaa2"/>
          <path id="Path_1406-15" data-name="Path 1406" d="M7.144,65.721,52.852,40.456A7.9,7.9,0,0,1,60.5,54.286L14.791,79.551a7.9,7.9,0,0,1-7.647-13.83" transform="translate(9.743 125.21)" fill="#fbdaa2"/>
          <path id="Path_1407-15" data-name="Path 1407" d="M45.228,24.877l7.28-8.473A7.9,7.9,0,1,1,64.494,26.7l-7.28,8.473a7.9,7.9,0,0,1-11.986-10.3" transform="translate(137.434 43.333)" fill="#fbdaa2"/>
          <path id="Path_1408-15" data-name="Path 1408" d="M26.929,33.2,15.882,34.86a7.9,7.9,0,1,0,2.349,15.628l11.043-1.656A7.9,7.9,0,1,0,26.929,33.2" transform="translate(29.033 105.04)" fill="#fbdaa2"/>
          <path id="Path_1409-15" data-name="Path 1409" d="M34.726,25.374l-8.945-6.692A7.9,7.9,0,0,0,16.315,31.34l8.945,6.688a7.9,7.9,0,0,0,9.466-12.653" transform="translate(41.728 54.292)" fill="#fbdaa2"/>
          <path id="Path_1410-15" data-name="Path 1410" d="M30.026,27.982l-.909-11.131A7.9,7.9,0,0,1,44.87,15.566L45.779,26.7a7.9,7.9,0,0,1-15.753,1.285" transform="translate(92.273 26.344)" fill="#fbdaa2"/>
        </g>
      </g>
      <g id="Group_1730-8" data-name="Group 1730" transform="translate(403.868 275.483) rotate(180)">
        <g id="Group_1728-16" data-name="Group 1728" transform="translate(0 0)" clip-path="url(#clip-path)">
          <path id="Path_1401-16" data-name="Path 1401" d="M32.241,115.652a7.95,7.95,0,0,1-6.971-4.109A63.868,63.868,0,1,1,137.065,49.748a7.955,7.955,0,1,1-13.926,7.693,47.958,47.958,0,0,0-83.943,46.4,7.955,7.955,0,0,1-6.955,11.806" transform="translate(54.91 53.11)" fill="#fbdaa2"/>
          <path id="Path_1402-16" data-name="Path 1402" d="M51.621,41.136,97.329,15.871a7.9,7.9,0,1,1,7.647,13.83L59.268,54.966a7.9,7.9,0,1,1-7.647-13.83" transform="translate(150.82 47.229)" fill="#fbdaa2"/>
          <path id="Path_1403-16" data-name="Path 1403" d="M37.374,55.9,51.83,5.713A7.9,7.9,0,1,1,67.016,10.09L52.56,60.273A7.9,7.9,0,0,1,37.374,55.9" transform="translate(117.574 -0.002)" fill="#fbdaa2"/>
          <path id="Path_1404-16" data-name="Path 1404" d="M60.274,37.167,10.086,22.711A7.9,7.9,0,1,0,5.714,37.9L55.9,52.353a7.9,7.9,0,1,0,4.372-15.186" transform="translate(0.001 71.064)" fill="#fbdaa2"/>
          <path id="Path_1405-16" data-name="Path 1405" d="M41.62,59.822,16.355,14.114a7.9,7.9,0,0,1,13.83-7.647L55.45,52.175a7.9,7.9,0,1,1-13.83,7.647" transform="translate(48.764 7.596)" fill="#fbdaa2"/>
          <path id="Path_1406-16" data-name="Path 1406" d="M7.144,65.721,52.852,40.456A7.9,7.9,0,0,1,60.5,54.286L14.791,79.551a7.9,7.9,0,0,1-7.647-13.83" transform="translate(9.743 125.21)" fill="#fbdaa2"/>
          <path id="Path_1407-16" data-name="Path 1407" d="M45.228,24.877l7.28-8.473A7.9,7.9,0,1,1,64.494,26.7l-7.28,8.473a7.9,7.9,0,0,1-11.986-10.3" transform="translate(137.434 43.333)" fill="#fbdaa2"/>
          <path id="Path_1408-16" data-name="Path 1408" d="M26.929,33.2,15.882,34.86a7.9,7.9,0,1,0,2.349,15.628l11.043-1.656A7.9,7.9,0,1,0,26.929,33.2" transform="translate(29.033 105.04)" fill="#fbdaa2"/>
          <path id="Path_1409-16" data-name="Path 1409" d="M34.726,25.374l-8.945-6.692A7.9,7.9,0,0,0,16.315,31.34l8.945,6.688a7.9,7.9,0,0,0,9.466-12.653" transform="translate(41.728 54.292)" fill="#fbdaa2"/>
          <path id="Path_1410-16" data-name="Path 1410" d="M30.026,27.982l-.909-11.131A7.9,7.9,0,0,1,44.87,15.566L45.779,26.7a7.9,7.9,0,0,1-15.753,1.285" transform="translate(92.273 26.344)" fill="#fbdaa2"/>
        </g>
      </g>
    </g>
    <g id="Group_1740" data-name="Group 1740" transform="translate(919.5 136.32)">
      <g id="Group_1729-9" data-name="Group 1729" transform="translate(61)">
        <g id="Group_1728-17" data-name="Group 1728" transform="translate(0 0)" clip-path="url(#clip-path)">
          <path id="Path_1401-17" data-name="Path 1401" d="M32.241,115.652a7.95,7.95,0,0,1-6.971-4.109A63.868,63.868,0,1,1,137.065,49.748a7.955,7.955,0,1,1-13.926,7.693,47.958,47.958,0,0,0-83.943,46.4,7.955,7.955,0,0,1-6.955,11.806" transform="translate(54.91 53.11)" fill="#fbdaa2"/>
          <path id="Path_1402-17" data-name="Path 1402" d="M51.621,41.136,97.329,15.871a7.9,7.9,0,1,1,7.647,13.83L59.268,54.966a7.9,7.9,0,1,1-7.647-13.83" transform="translate(150.82 47.229)" fill="#fbdaa2"/>
          <path id="Path_1403-17" data-name="Path 1403" d="M37.374,55.9,51.83,5.713A7.9,7.9,0,1,1,67.016,10.09L52.56,60.273A7.9,7.9,0,0,1,37.374,55.9" transform="translate(117.574 -0.002)" fill="#fbdaa2"/>
          <path id="Path_1404-17" data-name="Path 1404" d="M60.274,37.167,10.086,22.711A7.9,7.9,0,1,0,5.714,37.9L55.9,52.353a7.9,7.9,0,1,0,4.372-15.186" transform="translate(0.001 71.064)" fill="#fbdaa2"/>
          <path id="Path_1405-17" data-name="Path 1405" d="M41.62,59.822,16.355,14.114a7.9,7.9,0,0,1,13.83-7.647L55.45,52.175a7.9,7.9,0,1,1-13.83,7.647" transform="translate(48.764 7.596)" fill="#fbdaa2"/>
          <path id="Path_1406-17" data-name="Path 1406" d="M7.144,65.721,52.852,40.456A7.9,7.9,0,0,1,60.5,54.286L14.791,79.551a7.9,7.9,0,0,1-7.647-13.83" transform="translate(9.743 125.21)" fill="#fbdaa2"/>
          <path id="Path_1407-17" data-name="Path 1407" d="M45.228,24.877l7.28-8.473A7.9,7.9,0,1,1,64.494,26.7l-7.28,8.473a7.9,7.9,0,0,1-11.986-10.3" transform="translate(137.434 43.333)" fill="#fbdaa2"/>
          <path id="Path_1408-17" data-name="Path 1408" d="M26.929,33.2,15.882,34.86a7.9,7.9,0,1,0,2.349,15.628l11.043-1.656A7.9,7.9,0,1,0,26.929,33.2" transform="translate(29.033 105.04)" fill="#fbdaa2"/>
          <path id="Path_1409-17" data-name="Path 1409" d="M34.726,25.374l-8.945-6.692A7.9,7.9,0,0,0,16.315,31.34l8.945,6.688a7.9,7.9,0,0,0,9.466-12.653" transform="translate(41.728 54.292)" fill="#fbdaa2"/>
          <path id="Path_1410-17" data-name="Path 1410" d="M30.026,27.982l-.909-11.131A7.9,7.9,0,0,1,44.87,15.566L45.779,26.7a7.9,7.9,0,0,1-15.753,1.285" transform="translate(92.273 26.344)" fill="#fbdaa2"/>
        </g>
      </g>
      <g id="Group_1730-9" data-name="Group 1730" transform="translate(403.868 275.483) rotate(180)">
        <g id="Group_1728-18" data-name="Group 1728" transform="translate(0 0)" clip-path="url(#clip-path)">
          <path id="Path_1401-18" data-name="Path 1401" d="M32.241,115.652a7.95,7.95,0,0,1-6.971-4.109A63.868,63.868,0,1,1,137.065,49.748a7.955,7.955,0,1,1-13.926,7.693,47.958,47.958,0,0,0-83.943,46.4,7.955,7.955,0,0,1-6.955,11.806" transform="translate(54.91 53.11)" fill="#fbdaa2"/>
          <path id="Path_1402-18" data-name="Path 1402" d="M51.621,41.136,97.329,15.871a7.9,7.9,0,1,1,7.647,13.83L59.268,54.966a7.9,7.9,0,1,1-7.647-13.83" transform="translate(150.82 47.229)" fill="#fbdaa2"/>
          <path id="Path_1403-18" data-name="Path 1403" d="M37.374,55.9,51.83,5.713A7.9,7.9,0,1,1,67.016,10.09L52.56,60.273A7.9,7.9,0,0,1,37.374,55.9" transform="translate(117.574 -0.002)" fill="#fbdaa2"/>
          <path id="Path_1404-18" data-name="Path 1404" d="M60.274,37.167,10.086,22.711A7.9,7.9,0,1,0,5.714,37.9L55.9,52.353a7.9,7.9,0,1,0,4.372-15.186" transform="translate(0.001 71.064)" fill="#fbdaa2"/>
          <path id="Path_1405-18" data-name="Path 1405" d="M41.62,59.822,16.355,14.114a7.9,7.9,0,0,1,13.83-7.647L55.45,52.175a7.9,7.9,0,1,1-13.83,7.647" transform="translate(48.764 7.596)" fill="#fbdaa2"/>
          <path id="Path_1406-18" data-name="Path 1406" d="M7.144,65.721,52.852,40.456A7.9,7.9,0,0,1,60.5,54.286L14.791,79.551a7.9,7.9,0,0,1-7.647-13.83" transform="translate(9.743 125.21)" fill="#fbdaa2"/>
          <path id="Path_1407-18" data-name="Path 1407" d="M45.228,24.877l7.28-8.473A7.9,7.9,0,1,1,64.494,26.7l-7.28,8.473a7.9,7.9,0,0,1-11.986-10.3" transform="translate(137.434 43.333)" fill="#fbdaa2"/>
          <path id="Path_1408-18" data-name="Path 1408" d="M26.929,33.2,15.882,34.86a7.9,7.9,0,1,0,2.349,15.628l11.043-1.656A7.9,7.9,0,1,0,26.929,33.2" transform="translate(29.033 105.04)" fill="#fbdaa2"/>
          <path id="Path_1409-18" data-name="Path 1409" d="M34.726,25.374l-8.945-6.692A7.9,7.9,0,0,0,16.315,31.34l8.945,6.688a7.9,7.9,0,0,0,9.466-12.653" transform="translate(41.728 54.292)" fill="#fbdaa2"/>
          <path id="Path_1410-18" data-name="Path 1410" d="M30.026,27.982l-.909-11.131A7.9,7.9,0,0,1,44.87,15.566L45.779,26.7a7.9,7.9,0,0,1-15.753,1.285" transform="translate(92.273 26.344)" fill="#fbdaa2"/>
        </g>
      </g>
    </g>
    <g id="Group_1735" data-name="Group 1735" transform="translate(-322 372)">
      <g id="Group_1729-10" data-name="Group 1729" transform="translate(61)">
        <g id="Group_1728-19" data-name="Group 1728" transform="translate(0 0)" clip-path="url(#clip-path)">
          <path id="Path_1401-19" data-name="Path 1401" d="M32.241,115.652a7.95,7.95,0,0,1-6.971-4.109A63.868,63.868,0,1,1,137.065,49.748a7.955,7.955,0,1,1-13.926,7.693,47.958,47.958,0,0,0-83.943,46.4,7.955,7.955,0,0,1-6.955,11.806" transform="translate(54.91 53.11)" fill="#fbdaa2"/>
          <path id="Path_1402-19" data-name="Path 1402" d="M51.621,41.136,97.329,15.871a7.9,7.9,0,1,1,7.647,13.83L59.268,54.966a7.9,7.9,0,1,1-7.647-13.83" transform="translate(150.82 47.229)" fill="#fbdaa2"/>
          <path id="Path_1403-19" data-name="Path 1403" d="M37.374,55.9,51.83,5.713A7.9,7.9,0,1,1,67.016,10.09L52.56,60.273A7.9,7.9,0,0,1,37.374,55.9" transform="translate(117.574 -0.002)" fill="#fbdaa2"/>
          <path id="Path_1404-19" data-name="Path 1404" d="M60.274,37.167,10.086,22.711A7.9,7.9,0,1,0,5.714,37.9L55.9,52.353a7.9,7.9,0,1,0,4.372-15.186" transform="translate(0.001 71.064)" fill="#fbdaa2"/>
          <path id="Path_1405-19" data-name="Path 1405" d="M41.62,59.822,16.355,14.114a7.9,7.9,0,0,1,13.83-7.647L55.45,52.175a7.9,7.9,0,1,1-13.83,7.647" transform="translate(48.764 7.596)" fill="#fbdaa2"/>
          <path id="Path_1406-19" data-name="Path 1406" d="M7.144,65.721,52.852,40.456A7.9,7.9,0,0,1,60.5,54.286L14.791,79.551a7.9,7.9,0,0,1-7.647-13.83" transform="translate(9.743 125.21)" fill="#fbdaa2"/>
          <path id="Path_1407-19" data-name="Path 1407" d="M45.228,24.877l7.28-8.473A7.9,7.9,0,1,1,64.494,26.7l-7.28,8.473a7.9,7.9,0,0,1-11.986-10.3" transform="translate(137.434 43.333)" fill="#fbdaa2"/>
          <path id="Path_1408-19" data-name="Path 1408" d="M26.929,33.2,15.882,34.86a7.9,7.9,0,1,0,2.349,15.628l11.043-1.656A7.9,7.9,0,1,0,26.929,33.2" transform="translate(29.033 105.04)" fill="#fbdaa2"/>
          <path id="Path_1409-19" data-name="Path 1409" d="M34.726,25.374l-8.945-6.692A7.9,7.9,0,0,0,16.315,31.34l8.945,6.688a7.9,7.9,0,0,0,9.466-12.653" transform="translate(41.728 54.292)" fill="#fbdaa2"/>
          <path id="Path_1410-19" data-name="Path 1410" d="M30.026,27.982l-.909-11.131A7.9,7.9,0,0,1,44.87,15.566L45.779,26.7a7.9,7.9,0,0,1-15.753,1.285" transform="translate(92.273 26.344)" fill="#fbdaa2"/>
        </g>
      </g>
      <g id="Group_1730-10" data-name="Group 1730" transform="translate(403.868 275.483) rotate(180)">
        <g id="Group_1728-20" data-name="Group 1728" transform="translate(0 0)" clip-path="url(#clip-path)">
          <path id="Path_1401-20" data-name="Path 1401" d="M32.241,115.652a7.95,7.95,0,0,1-6.971-4.109A63.868,63.868,0,1,1,137.065,49.748a7.955,7.955,0,1,1-13.926,7.693,47.958,47.958,0,0,0-83.943,46.4,7.955,7.955,0,0,1-6.955,11.806" transform="translate(54.91 53.11)" fill="#fbdaa2"/>
          <path id="Path_1402-20" data-name="Path 1402" d="M51.621,41.136,97.329,15.871a7.9,7.9,0,1,1,7.647,13.83L59.268,54.966a7.9,7.9,0,1,1-7.647-13.83" transform="translate(150.82 47.229)" fill="#fbdaa2"/>
          <path id="Path_1403-20" data-name="Path 1403" d="M37.374,55.9,51.83,5.713A7.9,7.9,0,1,1,67.016,10.09L52.56,60.273A7.9,7.9,0,0,1,37.374,55.9" transform="translate(117.574 -0.002)" fill="#fbdaa2"/>
          <path id="Path_1404-20" data-name="Path 1404" d="M60.274,37.167,10.086,22.711A7.9,7.9,0,1,0,5.714,37.9L55.9,52.353a7.9,7.9,0,1,0,4.372-15.186" transform="translate(0.001 71.064)" fill="#fbdaa2"/>
          <path id="Path_1405-20" data-name="Path 1405" d="M41.62,59.822,16.355,14.114a7.9,7.9,0,0,1,13.83-7.647L55.45,52.175a7.9,7.9,0,1,1-13.83,7.647" transform="translate(48.764 7.596)" fill="#fbdaa2"/>
          <path id="Path_1406-20" data-name="Path 1406" d="M7.144,65.721,52.852,40.456A7.9,7.9,0,0,1,60.5,54.286L14.791,79.551a7.9,7.9,0,0,1-7.647-13.83" transform="translate(9.743 125.21)" fill="#fbdaa2"/>
          <path id="Path_1407-20" data-name="Path 1407" d="M45.228,24.877l7.28-8.473A7.9,7.9,0,1,1,64.494,26.7l-7.28,8.473a7.9,7.9,0,0,1-11.986-10.3" transform="translate(137.434 43.333)" fill="#fbdaa2"/>
          <path id="Path_1408-20" data-name="Path 1408" d="M26.929,33.2,15.882,34.86a7.9,7.9,0,1,0,2.349,15.628l11.043-1.656A7.9,7.9,0,1,0,26.929,33.2" transform="translate(29.033 105.04)" fill="#fbdaa2"/>
          <path id="Path_1409-20" data-name="Path 1409" d="M34.726,25.374l-8.945-6.692A7.9,7.9,0,0,0,16.315,31.34l8.945,6.688a7.9,7.9,0,0,0,9.466-12.653" transform="translate(41.728 54.292)" fill="#fbdaa2"/>
          <path id="Path_1410-20" data-name="Path 1410" d="M30.026,27.982l-.909-11.131A7.9,7.9,0,0,1,44.87,15.566L45.779,26.7a7.9,7.9,0,0,1-15.753,1.285" transform="translate(92.273 26.344)" fill="#fbdaa2"/>
        </g>
      </g>
    </g>
    <g id="Group_1739" data-name="Group 1739" transform="translate(-322 -125)">
      <g id="Group_1729-11" data-name="Group 1729" transform="translate(61)">
        <g id="Group_1728-21" data-name="Group 1728" transform="translate(0 0)" clip-path="url(#clip-path)">
          <path id="Path_1401-21" data-name="Path 1401" d="M32.241,115.652a7.95,7.95,0,0,1-6.971-4.109A63.868,63.868,0,1,1,137.065,49.748a7.955,7.955,0,1,1-13.926,7.693,47.958,47.958,0,0,0-83.943,46.4,7.955,7.955,0,0,1-6.955,11.806" transform="translate(54.91 53.11)" fill="#fbdaa2"/>
          <path id="Path_1402-21" data-name="Path 1402" d="M51.621,41.136,97.329,15.871a7.9,7.9,0,1,1,7.647,13.83L59.268,54.966a7.9,7.9,0,1,1-7.647-13.83" transform="translate(150.82 47.229)" fill="#fbdaa2"/>
          <path id="Path_1403-21" data-name="Path 1403" d="M37.374,55.9,51.83,5.713A7.9,7.9,0,1,1,67.016,10.09L52.56,60.273A7.9,7.9,0,0,1,37.374,55.9" transform="translate(117.574 -0.002)" fill="#fbdaa2"/>
          <path id="Path_1404-21" data-name="Path 1404" d="M60.274,37.167,10.086,22.711A7.9,7.9,0,1,0,5.714,37.9L55.9,52.353a7.9,7.9,0,1,0,4.372-15.186" transform="translate(0.001 71.064)" fill="#fbdaa2"/>
          <path id="Path_1405-21" data-name="Path 1405" d="M41.62,59.822,16.355,14.114a7.9,7.9,0,0,1,13.83-7.647L55.45,52.175a7.9,7.9,0,1,1-13.83,7.647" transform="translate(48.764 7.596)" fill="#fbdaa2"/>
          <path id="Path_1406-21" data-name="Path 1406" d="M7.144,65.721,52.852,40.456A7.9,7.9,0,0,1,60.5,54.286L14.791,79.551a7.9,7.9,0,0,1-7.647-13.83" transform="translate(9.743 125.21)" fill="#fbdaa2"/>
          <path id="Path_1407-21" data-name="Path 1407" d="M45.228,24.877l7.28-8.473A7.9,7.9,0,1,1,64.494,26.7l-7.28,8.473a7.9,7.9,0,0,1-11.986-10.3" transform="translate(137.434 43.333)" fill="#fbdaa2"/>
          <path id="Path_1408-21" data-name="Path 1408" d="M26.929,33.2,15.882,34.86a7.9,7.9,0,1,0,2.349,15.628l11.043-1.656A7.9,7.9,0,1,0,26.929,33.2" transform="translate(29.033 105.04)" fill="#fbdaa2"/>
          <path id="Path_1409-21" data-name="Path 1409" d="M34.726,25.374l-8.945-6.692A7.9,7.9,0,0,0,16.315,31.34l8.945,6.688a7.9,7.9,0,0,0,9.466-12.653" transform="translate(41.728 54.292)" fill="#fbdaa2"/>
          <path id="Path_1410-21" data-name="Path 1410" d="M30.026,27.982l-.909-11.131A7.9,7.9,0,0,1,44.87,15.566L45.779,26.7a7.9,7.9,0,0,1-15.753,1.285" transform="translate(92.273 26.344)" fill="#fbdaa2"/>
        </g>
      </g>
      <g id="Group_1730-11" data-name="Group 1730" transform="translate(403.868 275.483) rotate(180)">
        <g id="Group_1728-22" data-name="Group 1728" transform="translate(0 0)" clip-path="url(#clip-path)">
          <path id="Path_1401-22" data-name="Path 1401" d="M32.241,115.652a7.95,7.95,0,0,1-6.971-4.109A63.868,63.868,0,1,1,137.065,49.748a7.955,7.955,0,1,1-13.926,7.693,47.958,47.958,0,0,0-83.943,46.4,7.955,7.955,0,0,1-6.955,11.806" transform="translate(54.91 53.11)" fill="#fbdaa2"/>
          <path id="Path_1402-22" data-name="Path 1402" d="M51.621,41.136,97.329,15.871a7.9,7.9,0,1,1,7.647,13.83L59.268,54.966a7.9,7.9,0,1,1-7.647-13.83" transform="translate(150.82 47.229)" fill="#fbdaa2"/>
          <path id="Path_1403-22" data-name="Path 1403" d="M37.374,55.9,51.83,5.713A7.9,7.9,0,1,1,67.016,10.09L52.56,60.273A7.9,7.9,0,0,1,37.374,55.9" transform="translate(117.574 -0.002)" fill="#fbdaa2"/>
          <path id="Path_1404-22" data-name="Path 1404" d="M60.274,37.167,10.086,22.711A7.9,7.9,0,1,0,5.714,37.9L55.9,52.353a7.9,7.9,0,1,0,4.372-15.186" transform="translate(0.001 71.064)" fill="#fbdaa2"/>
          <path id="Path_1405-22" data-name="Path 1405" d="M41.62,59.822,16.355,14.114a7.9,7.9,0,0,1,13.83-7.647L55.45,52.175a7.9,7.9,0,1,1-13.83,7.647" transform="translate(48.764 7.596)" fill="#fbdaa2"/>
          <path id="Path_1406-22" data-name="Path 1406" d="M7.144,65.721,52.852,40.456A7.9,7.9,0,0,1,60.5,54.286L14.791,79.551a7.9,7.9,0,0,1-7.647-13.83" transform="translate(9.743 125.21)" fill="#fbdaa2"/>
          <path id="Path_1407-22" data-name="Path 1407" d="M45.228,24.877l7.28-8.473A7.9,7.9,0,1,1,64.494,26.7l-7.28,8.473a7.9,7.9,0,0,1-11.986-10.3" transform="translate(137.434 43.333)" fill="#fbdaa2"/>
          <path id="Path_1408-22" data-name="Path 1408" d="M26.929,33.2,15.882,34.86a7.9,7.9,0,1,0,2.349,15.628l11.043-1.656A7.9,7.9,0,1,0,26.929,33.2" transform="translate(29.033 105.04)" fill="#fbdaa2"/>
          <path id="Path_1409-22" data-name="Path 1409" d="M34.726,25.374l-8.945-6.692A7.9,7.9,0,0,0,16.315,31.34l8.945,6.688a7.9,7.9,0,0,0,9.466-12.653" transform="translate(41.728 54.292)" fill="#fbdaa2"/>
          <path id="Path_1410-22" data-name="Path 1410" d="M30.026,27.982l-.909-11.131A7.9,7.9,0,0,1,44.87,15.566L45.779,26.7a7.9,7.9,0,0,1-15.753,1.285" transform="translate(92.273 26.344)" fill="#fbdaa2"/>
        </g>
      </g>
    </g>
    <g id="Group_1743" data-name="Group 1743" transform="translate(-189.5 136.32)">
      <g id="Group_1729-12" data-name="Group 1729" transform="translate(61)">
        <g id="Group_1728-23" data-name="Group 1728" transform="translate(0 0)" clip-path="url(#clip-path)">
          <path id="Path_1401-23" data-name="Path 1401" d="M32.241,115.652a7.95,7.95,0,0,1-6.971-4.109A63.868,63.868,0,1,1,137.065,49.748a7.955,7.955,0,1,1-13.926,7.693,47.958,47.958,0,0,0-83.943,46.4,7.955,7.955,0,0,1-6.955,11.806" transform="translate(54.91 53.11)" fill="#fbdaa2"/>
          <path id="Path_1402-23" data-name="Path 1402" d="M51.621,41.136,97.329,15.871a7.9,7.9,0,1,1,7.647,13.83L59.268,54.966a7.9,7.9,0,1,1-7.647-13.83" transform="translate(150.82 47.229)" fill="#fbdaa2"/>
          <path id="Path_1403-23" data-name="Path 1403" d="M37.374,55.9,51.83,5.713A7.9,7.9,0,1,1,67.016,10.09L52.56,60.273A7.9,7.9,0,0,1,37.374,55.9" transform="translate(117.574 -0.002)" fill="#fbdaa2"/>
          <path id="Path_1404-23" data-name="Path 1404" d="M60.274,37.167,10.086,22.711A7.9,7.9,0,1,0,5.714,37.9L55.9,52.353a7.9,7.9,0,1,0,4.372-15.186" transform="translate(0.001 71.064)" fill="#fbdaa2"/>
          <path id="Path_1405-23" data-name="Path 1405" d="M41.62,59.822,16.355,14.114a7.9,7.9,0,0,1,13.83-7.647L55.45,52.175a7.9,7.9,0,1,1-13.83,7.647" transform="translate(48.764 7.596)" fill="#fbdaa2"/>
          <path id="Path_1406-23" data-name="Path 1406" d="M7.144,65.721,52.852,40.456A7.9,7.9,0,0,1,60.5,54.286L14.791,79.551a7.9,7.9,0,0,1-7.647-13.83" transform="translate(9.743 125.21)" fill="#fbdaa2"/>
          <path id="Path_1407-23" data-name="Path 1407" d="M45.228,24.877l7.28-8.473A7.9,7.9,0,1,1,64.494,26.7l-7.28,8.473a7.9,7.9,0,0,1-11.986-10.3" transform="translate(137.434 43.333)" fill="#fbdaa2"/>
          <path id="Path_1408-23" data-name="Path 1408" d="M26.929,33.2,15.882,34.86a7.9,7.9,0,1,0,2.349,15.628l11.043-1.656A7.9,7.9,0,1,0,26.929,33.2" transform="translate(29.033 105.04)" fill="#fbdaa2"/>
          <path id="Path_1409-23" data-name="Path 1409" d="M34.726,25.374l-8.945-6.692A7.9,7.9,0,0,0,16.315,31.34l8.945,6.688a7.9,7.9,0,0,0,9.466-12.653" transform="translate(41.728 54.292)" fill="#fbdaa2"/>
          <path id="Path_1410-23" data-name="Path 1410" d="M30.026,27.982l-.909-11.131A7.9,7.9,0,0,1,44.87,15.566L45.779,26.7a7.9,7.9,0,0,1-15.753,1.285" transform="translate(92.273 26.344)" fill="#fbdaa2"/>
        </g>
      </g>
      <g id="Group_1730-12" data-name="Group 1730" transform="translate(403.868 275.483) rotate(180)">
        <g id="Group_1728-24" data-name="Group 1728" transform="translate(0 0)" clip-path="url(#clip-path)">
          <path id="Path_1401-24" data-name="Path 1401" d="M32.241,115.652a7.95,7.95,0,0,1-6.971-4.109A63.868,63.868,0,1,1,137.065,49.748a7.955,7.955,0,1,1-13.926,7.693,47.958,47.958,0,0,0-83.943,46.4,7.955,7.955,0,0,1-6.955,11.806" transform="translate(54.91 53.11)" fill="#fbdaa2"/>
          <path id="Path_1402-24" data-name="Path 1402" d="M51.621,41.136,97.329,15.871a7.9,7.9,0,1,1,7.647,13.83L59.268,54.966a7.9,7.9,0,1,1-7.647-13.83" transform="translate(150.82 47.229)" fill="#fbdaa2"/>
          <path id="Path_1403-24" data-name="Path 1403" d="M37.374,55.9,51.83,5.713A7.9,7.9,0,1,1,67.016,10.09L52.56,60.273A7.9,7.9,0,0,1,37.374,55.9" transform="translate(117.574 -0.002)" fill="#fbdaa2"/>
          <path id="Path_1404-24" data-name="Path 1404" d="M60.274,37.167,10.086,22.711A7.9,7.9,0,1,0,5.714,37.9L55.9,52.353a7.9,7.9,0,1,0,4.372-15.186" transform="translate(0.001 71.064)" fill="#fbdaa2"/>
          <path id="Path_1405-24" data-name="Path 1405" d="M41.62,59.822,16.355,14.114a7.9,7.9,0,0,1,13.83-7.647L55.45,52.175a7.9,7.9,0,1,1-13.83,7.647" transform="translate(48.764 7.596)" fill="#fbdaa2"/>
          <path id="Path_1406-24" data-name="Path 1406" d="M7.144,65.721,52.852,40.456A7.9,7.9,0,0,1,60.5,54.286L14.791,79.551a7.9,7.9,0,0,1-7.647-13.83" transform="translate(9.743 125.21)" fill="#fbdaa2"/>
          <path id="Path_1407-24" data-name="Path 1407" d="M45.228,24.877l7.28-8.473A7.9,7.9,0,1,1,64.494,26.7l-7.28,8.473a7.9,7.9,0,0,1-11.986-10.3" transform="translate(137.434 43.333)" fill="#fbdaa2"/>
          <path id="Path_1408-24" data-name="Path 1408" d="M26.929,33.2,15.882,34.86a7.9,7.9,0,1,0,2.349,15.628l11.043-1.656A7.9,7.9,0,1,0,26.929,33.2" transform="translate(29.033 105.04)" fill="#fbdaa2"/>
          <path id="Path_1409-24" data-name="Path 1409" d="M34.726,25.374l-8.945-6.692A7.9,7.9,0,0,0,16.315,31.34l8.945,6.688a7.9,7.9,0,0,0,9.466-12.653" transform="translate(41.728 54.292)" fill="#fbdaa2"/>
          <path id="Path_1410-24" data-name="Path 1410" d="M30.026,27.982l-.909-11.131A7.9,7.9,0,0,1,44.87,15.566L45.779,26.7a7.9,7.9,0,0,1-15.753,1.285" transform="translate(92.273 26.344)" fill="#fbdaa2"/>
        </g>
      </g>
    </g>
  </g>
</svg>
