<svg xmlns="http://www.w3.org/2000/svg" xmlns:xlink="http://www.w3.org/1999/xlink" width="586.76" height="586.76" viewBox="0 0 586.76 586.76">
  <defs>
    <clipPath id="clip-Star_light_2_1">
      <rect width="586.76" height="586.76"/>
    </clipPath>
  </defs>
  <g id="Star_light_2_1" data-name="Star light 2 – 1" clip-path="url(#clip-Star_light_2_1)">
    <rect width="586.76" height="586.76" fill="#fff"/>
    <path id="Path_1411" data-name="Path 1411" d="M0,0H634V645H0Z" transform="translate(-24 -29)" fill="#fff"/>
    <path id="Path_323" data-name="Path 323" d="M73.754,114.631V136.42l.215-.435L99.027,186.76l56.031,8.141-40.545,39.522,9.572,55.805L73.969,263.88l-.215.113v10.893l.215-.113,62.923,33.081-12.017-70.066,50.906-49.62-70.35-10.222L73.969,114.2Z" transform="translate(-73.954 -68.039)" fill="#ffe958" opacity="0.349"/>
    <path id="Path_324" data-name="Path 324" d="M496,177.944l-70.349,10.222,50.905,49.622-12.017,70.065,62.921-33.079.211.11V263.991l-.211-.112-50.115,26.347,9.572-55.805L446.375,194.9l56.03-8.141,25.058-50.775.211.427V114.625l-.211-.427Z" transform="translate(59.088 -68.039)" fill="#ffe958" opacity="0.349"/>
    <path id="Path_330" data-name="Path 330" d="M383.712,442.415,332.844,399.3,268.49,416.765l25.283-61.7-36.5-55.808,66.5,4.98,41.8-51.954,15.814,64.778,62.329,23.7-56.723,35.056Zm-48.648-53.086,40.515,34.337,2.61-53.046L423.368,342.7l-49.642-18.875L361.131,272.23l-33.291,41.38-52.961-3.966,29.067,44.449-20.138,49.145Z" transform="translate(-4.474 -15.912)" fill="#ffe958" opacity="0.42"/>
    <path id="Path_1397" data-name="Path 1397" d="M468.276,569.582l-84.89-71.948-107.4,29.142,42.192-102.968-60.9-93.134,110.97,8.31L438,252.282l26.39,108.1,104.016,39.549-94.66,58.5Zm-81.185-88.591,67.612,57.3,4.356-88.525,75.394-46.6-82.845-31.5-21.018-86.1-55.558,69.056-88.382-6.618,48.507,74.178L301.552,504.2Z" transform="translate(-125.177 -360.773)" fill="#ffe958" opacity="0.587"/>
    <path id="Path_1399" data-name="Path 1399" d="M468.276,569.582l-84.89-71.948-107.4,29.142,42.192-102.968-60.9-93.134,110.97,8.31L438,252.282l26.39,108.1,104.016,39.549-94.66,58.5Zm-81.185-88.591,67.612,57.3,4.356-88.525,75.394-46.6-82.845-31.5-21.018-86.1-55.558,69.056-88.382-6.618,48.507,74.178L301.552,504.2Z" transform="translate(-125.177 225.934)" fill="#ffe958" opacity="0.587"/>
    <path id="Path_334" data-name="Path 334" d="M242.923,460.419l.394-24.449L223.4,421.784l23.375-7.181,7.337-23.327,14.052,20.012,24.451-.23-14.69,19.547,7.776,23.183-23.131-7.93ZM230.8,422.982l15.863,11.3-.314,19.472,15.647-11.594,18.424,6.316-6.193-18.464,11.7-15.571-19.475.185-11.192-15.939-5.843,18.578Z" transform="translate(-17.262 36.559)" fill="#ffe958"/>
    <path id="Path_335" data-name="Path 335" d="M156.8,230.876l-1.96-12.223-11.178-5.316,11.02-5.639,1.6-12.275,8.768,8.737,12.169-2.271-5.6,11.041,5.921,10.871L165.3,221.888Zm-9.345-17.593,8.9,4.234,1.559,9.735,6.779-7.16,9.74,1.525-4.714-8.659,4.459-8.793-9.692,1.807-6.984-6.958-1.274,9.776Z" transform="translate(-47.365 -37.376)" fill="#ffe958"/>
    <path id="Path_336" data-name="Path 336" d="M182.6,144.432l-9.017-8.48-12.1,2.621,5.279-11.2-6.232-10.7,12.279,1.559,8.247-9.232,2.311,12.162,11.329,4.989-10.851,5.956Zm-8.51-10.308,7.182,6.754.992-9.809,8.642-4.744-9.023-3.974-1.84-9.687-6.568,7.353-9.78-1.243,4.963,8.52-4.206,8.918Z" transform="translate(-40.997 -69.998)" fill="#ffe958"/>
    <path id="Path_337" data-name="Path 337" d="M369.008,196.775l-9.466-7.977L347.6,192.074l4.663-11.468-6.8-10.342,12.347.891,7.733-9.667,2.968,12.019,11.583,4.367-10.512,6.536Zm-9.058-9.83,7.539,6.354.457-9.849,8.372-5.207-9.225-3.478-2.365-9.572-6.159,7.7-9.834-.708,5.419,8.236-3.712,9.134Z" transform="translate(28.816 -50.187)" fill="#ffe958"/>
    <path id="Path_338" data-name="Path 338" d="M377.38,479.574l-1.959-12.223-11.18-5.314,11.02-5.641,1.6-12.275,8.769,8.737,12.169-2.27-5.6,11.039,5.921,10.873-12.231-1.916Zm-9.345-17.593,8.9,4.233,1.559,9.738,6.779-7.162,9.74,1.526-4.714-8.66,4.46-8.793-9.692,1.809-6.985-6.958-1.274,9.775Z" transform="translate(35.905 56.507)" fill="#ffe958"/>
    <path id="Path_339" data-name="Path 339" d="M170.875,406.487l-5.645-35.232-32.222-15.322,31.761-16.254,4.615-35.38,25.274,25.183,35.075-6.544-16.14,31.82,17.063,31.337L195.4,380.577Zm-26.934-50.713,25.664,12.2,4.5,28.06L193.64,375.4l28.075,4.393-13.589-24.958,12.856-25.343-27.937,5.212L172.914,314.65l-3.675,28.178Z" transform="translate(-51.385 3.724)" fill="#ffe958" opacity="0.489"/>
    <path id="Path_340" data-name="Path 340" d="M473.209,439.791l-30.174-19.04-32.793,14.063,8.784-34.581L395.518,373.39l35.6-2.331,18.263-30.652,13.22,33.14,34.8,7.9-27.433,22.814ZM443.465,415.3,467.5,430.467l-2.581-28.3,21.85-18.172-27.714-6.29-10.53-26.4-14.545,24.413-28.359,1.857,18.724,21.379-7,27.543Z" transform="translate(47.712 17.355)" fill="#ffe958" opacity="0.692"/>
    <path id="Path_1398" data-name="Path 1398" d="M473.209,439.791l-30.174-19.04-32.793,14.063,8.784-34.581L395.518,373.39l35.6-2.331,18.263-30.652,13.22,33.14,34.8,7.9-27.433,22.814ZM443.465,415.3,467.5,430.467l-2.581-28.3,21.85-18.172-27.714-6.29-10.53-26.4-14.545,24.413-28.359,1.857,18.724,21.379-7,27.543Z" transform="matrix(-0.469, 0.883, -0.883, -0.469, 1048.208, 375.7)" fill="#ffe958" opacity="0.708"/>
    <path id="Path_1400" data-name="Path 1400" d="M473.209,439.791l-30.174-19.04-32.793,14.063,8.784-34.581L395.518,373.39l35.6-2.331,18.263-30.652,13.22,33.14,34.8,7.9-27.433,22.814ZM443.465,415.3,467.5,430.467l-2.581-28.3,21.85-18.172-27.714-6.29-10.53-26.4-14.545,24.413-28.359,1.857,18.724,21.379-7,27.543Z" transform="matrix(-0.469, 0.883, -0.883, -0.469, 1048.208, -211.06)" fill="#ffe958" opacity="0.708"/>
    <path id="Path_341" data-name="Path 341" d="M495.864,437.817l-11.02,5.64,11.178,5.316,1.96,12.223,7.346-7.761v-2.442L499.1,457.37l-1.559-9.736-8.9-4.233,8.777-4.492,1.274-9.776,6.64,6.617v-2.372l-7.864-7.836Z" transform="translate(81.433 49.493)" fill="#ffe958"/>
    <path id="Path_342" data-name="Path 342" d="M74.094,432.506l-.34-.339v2.112l9.472-1.769L78.766,441.3l4.714,8.66-9.727-1.522v2.424l.6-.632,12.231,1.915-5.92-10.87,5.6-11.039Z" transform="translate(-73.754 51.266)" fill="#ffe958"/>
    <path id="Path_343" data-name="Path 343" d="M219,286.819l-6.44-23.59-23.081-8.071,20.446-13.413.543-24.445,19.074,15.3,23.418-7.038L244.3,248.431l13.932,20.1L233.8,267.361Zm-22.081-32.574,18.383,6.429,5.127,18.788,11.794-15.5,19.454.93-11.094-16.007,6.894-18.213-18.651,5.605-15.192-12.187-.431,19.472Z" transform="translate(-30.069 -29.118)" fill="#ffe958"/>
    <path id="Path_344" data-name="Path 344" d="M135.634,479.632l.916-24.435-19.61-14.607,23.524-6.68,7.834-23.163,13.621,20.307,24.451.292-15.1,19.23,7.277,23.344L155.586,465.5Zm-11.323-37.687,15.618,11.634L139.2,473.04l15.891-11.258,18.284,6.708-5.8-18.593,12.031-15.315-19.475-.233-10.849-16.175-6.239,18.45Z" transform="translate(-57.451 43.908)" fill="#ffe958" opacity="0.774"/>
    <path id="Path_345" data-name="Path 345" d="M412.534,254.9l-6.437-23.59-23.083-8.071,20.446-13.413L404,185.377l19.074,15.3,23.417-7.038-8.659,22.868,13.931,20.1-24.424-1.167Zm-22.081-32.574,18.384,6.429,5.127,18.788,11.8-15.5,19.453.93-11.1-16.007,6.9-18.213-18.651,5.605L407.17,192.168l-.433,19.472Z" transform="translate(42.992 -41.169)" fill="#ffe958" opacity="0.303"/>
    <path id="Path_926" data-name="Path 926" d="M412.534,254.9l-6.437-23.59-23.083-8.071,20.446-13.413L404,185.377l19.074,15.3,23.417-7.038-8.659,22.868,13.931,20.1-24.424-1.167Zm-22.081-32.574,18.384,6.429,5.127,18.788,11.8-15.5,19.453.93-11.1-16.007,6.9-18.213-18.651,5.605L407.17,192.168l-.433,19.472Z" transform="translate(163.966 100.481)" fill="#ffe958"/>
    <path id="Path_927" data-name="Path 927" d="M412.534,254.9l-6.437-23.59-23.083-8.071,20.446-13.413L404,185.377l19.074,15.3,23.417-7.038-8.659,22.868,13.931,20.1-24.424-1.167Zm-22.081-32.574,18.384,6.429,5.127,18.788,11.8-15.5,19.453.93-11.1-16.007,6.9-18.213-18.651,5.605L407.17,192.168l-.433,19.472Z" transform="translate(-423.694 100.481)" fill="#ffe958"/>
    <path id="Path_935" data-name="Path 935" d="M412.534,254.9l-6.437-23.59-23.083-8.071,20.446-13.413L404,185.377l19.074,15.3,23.417-7.038-8.659,22.868,13.931,20.1-24.424-1.167Zm-22.081-32.574,18.384,6.429,5.127,18.788,11.8-15.5,19.453.93-11.1-16.007,6.9-18.213-18.651,5.605L407.17,192.168l-.433,19.472Z" transform="translate(163.966 100.481)" fill="#ffe958"/>
    <path id="Path_948" data-name="Path 948" d="M170.875,405.5l-5.645-34.892-32.222-15.174,31.761-16.1,4.615-35.038,25.274,24.94,35.075-6.481-16.14,31.512L230.656,385.3,195.4,379.839Zm-26.934-50.222,25.664,12.085,4.5,27.788,19.537-20.435,28.075,4.35-13.589-24.716,12.856-25.1-27.937,5.162-20.131-19.864-3.675,27.906Z" transform="translate(-133.008 231.367)" fill="#ffe958"/>
    <path id="Path_949" data-name="Path 949" d="M170.875,406.487l-5.645-35.232-32.222-15.322,31.761-16.254,4.615-35.38,25.274,25.183,35.075-6.544-16.14,31.82,17.063,31.337L195.4,380.577Zm-26.934-50.713,25.664,12.2,4.5,28.06L193.64,375.4l28.075,4.393-13.589-24.958,12.856-25.343-27.937,5.212L172.914,314.65l-3.675,28.178Z" transform="translate(-133.008 -355.394)" fill="#ffe958"/>
    <path id="Path_927-2" data-name="Path 927" d="M412.534,254.9l-6.437-23.59-23.083-8.071,20.446-13.413L404,185.377l19.074,15.3,23.417-7.038-8.659,22.868,13.931,20.1-24.424-1.167Zm-22.081-32.574,18.384,6.429,5.127,18.788,11.8-15.5,19.453.93-11.1-16.007,6.9-18.213-18.651,5.605L407.17,192.168l-.433,19.472Z" transform="translate(164.306 100.481)" fill="#ffe958"/>
  </g>
</svg>
